HIERARCHY
ROOT Hips
{
	OFFSET 0.000000 0.000000 0.000000
	CHANNELS 6 Xposition Yposition Zposition Xrotation Yrotation Zrotation
	JOINT LeftUpLeg_virtual
	{
		OFFSET 0.000000 0.000000 0.000000
		CHANNELS 3 Xrotation Yrotation Zrotation
		JOINT LeftUpLeg
		{
			OFFSET 13.026900 -6.336304 -1.092800
			CHANNELS 3 Xrotation Yrotation Zrotation
			JOINT LeftLeg
			{
				OFFSET 0.524474 -46.096886 9.782700
				CHANNELS 3 Xrotation Yrotation Zrotation
				JOINT LeftFoot
				{
					OFFSET -0.524474 -53.427422 -12.948200
					CHANNELS 3 Xrotation Yrotation Zrotation
					JOINT LeftToeBase
					{
						OFFSET 0.192200 -14.009700 16.364100
						CHANNELS 3 Xrotation Yrotation Zrotation
						JOINT LeftToe_End
						{
							OFFSET -1.784700 -0.561700 9.474800
							CHANNELS 3 Xrotation Yrotation Zrotation
							End Site
							{
								OFFSET 0 0 0
							}
						}
					}
				}
			}
		}
	}
	JOINT RightUpLeg_virtual
	{
		OFFSET 0.000000 0.000000 0.000000
		CHANNELS 3 Xrotation Yrotation Zrotation
		JOINT RightUpLeg
		{
			OFFSET -12.883000 -6.336304 -1.092800
			CHANNELS 3 Xrotation Yrotation Zrotation
			JOINT RightLeg
			{
				OFFSET -0.524587 -46.096825 9.782800
				CHANNELS 3 Xrotation Yrotation Zrotation
				JOINT RightFoot
				{
					OFFSET 0.524587 -53.427383 -12.948300
					CHANNELS 3 Xrotation Yrotation Zrotation
					JOINT RightToeBase
					{
						OFFSET -0.192200 -14.009700 16.364100
						CHANNELS 3 Xrotation Yrotation Zrotation
						JOINT RightToe_End
						{
							OFFSET 1.784700 -0.561700 9.474800
							CHANNELS 3 Xrotation Yrotation Zrotation
							End Site
							{
								OFFSET 0 0 0
							}
						}
					}
				}
			}
		}
	}
	JOINT Spine_virtual
	{
		OFFSET 0.000000 0.000000 0.000000
		CHANNELS 3 Xrotation Yrotation Zrotation
		JOINT Spine
		{
			OFFSET 0.072000 7.257294 -0.789700
			CHANNELS 3 Xrotation Yrotation Zrotation
			JOINT Spine1
			{
				OFFSET 0.000000 12.508769 -0.658067
				CHANNELS 3 Xrotation Yrotation Zrotation
				JOINT Spine1_split
				{
					OFFSET 0.000000 12.508769 -0.658067
					CHANNELS 3 Xrotation Yrotation Zrotation
					JOINT Spine2
					{
						OFFSET 0.000000 12.508769 -0.658067
						CHANNELS 3 Xrotation Yrotation Zrotation
						JOINT Neck_virtual
						{
							OFFSET 0.000000 0.000000 0.000000
							CHANNELS 3 Xrotation Yrotation Zrotation
							JOINT Neck
							{
								OFFSET 0.000000 14.033295 7.520400
								CHANNELS 3 Xrotation Yrotation Zrotation
								JOINT Head
								{
									OFFSET 0.000000 8.198502 5.703100
									CHANNELS 3 Xrotation Yrotation Zrotation
									JOINT HeadTop_End
									{
										OFFSET 0.000000 17.760803 13.332701
										CHANNELS 3 Xrotation Yrotation Zrotation
										End Site
										{
											OFFSET 0 0 0
										}
									}
								}
							}
						}
						JOINT LeftShoulder_virtual
						{
							OFFSET 0.000000 0.000000 0.000000
							CHANNELS 3 Xrotation Yrotation Zrotation
							JOINT LeftShoulder
							{
								OFFSET 6.292450 5.785301 -0.669000
								CHANNELS 3 Xrotation Yrotation Zrotation
								JOINT LeftShoulder_split
								{
									OFFSET 6.292450 5.785301 -0.669000
									CHANNELS 3 Xrotation Yrotation Zrotation
									JOINT LeftArm
									{
										OFFSET 13.907140 -6.093903 1.965100
										CHANNELS 3 Xrotation Yrotation Zrotation
										JOINT LeftForeArm
										{
											OFFSET 34.140198 0.000000 0.000000
											CHANNELS 3 Xrotation Yrotation Zrotation
											JOINT LeftHand
											{
												OFFSET 40.960209 0.000000 0.000000
												CHANNELS 3 Xrotation Yrotation Zrotation
												End Site
												{
													OFFSET 0 0 0
												}
											}
										}
									}
								}
							}
						}
						JOINT RightShoulder_virtual
						{
							OFFSET 0.000000 0.000000 0.000000
							CHANNELS 3 Xrotation Yrotation Zrotation
							JOINT RightShoulder
							{
								OFFSET -6.292450 5.785301 -0.669000
								CHANNELS 3 Xrotation Yrotation Zrotation
								JOINT RightShoulder_split
								{
									OFFSET -6.292450 5.785301 -0.669000
									CHANNELS 3 Xrotation Yrotation Zrotation
									JOINT RightArm
									{
										OFFSET -13.907140 -6.093903 1.965100
										CHANNELS 3 Xrotation Yrotation Zrotation
										JOINT RightForeArm
										{
											OFFSET -34.140198 0.000000 0.000000
											CHANNELS 3 Xrotation Yrotation Zrotation
											JOINT RightHand
											{
												OFFSET -40.960209 0.000000 0.000000
												CHANNELS 3 Xrotation Yrotation Zrotation
												End Site
												{
													OFFSET 0 0 0
												}
											}
										}
									}
								}
							}
						}
					}
				}
			}
		}
	}
}
MOTION
Frames: 5
Frame Time: 0.03333333
6.801815 79.383881 153.625992 0.000000 0.000000 0.000000 6.015614 -25.532036 -1.643010 40.559173 25.141190 4.159273 2.058891 10.886882 3.036656 -15.496849 -2.474361 -39.118590 -20.300538 -0.335191 -4.221899 0.000000 0.000000 0.000000 7.756825 -22.714457 -2.694848 -84.658064 -4.250115 -9.269508 42.030566 0.166514 -1.979442 31.346979 6.137961 5.720223 -3.849123 2.951528 1.834025 0.000000 0.000000 0.000000 6.639416 -22.443947 -1.131878 4.457651 -5.971777 2.493908 3.287384 -6.134466 0.552731 1.419206 -5.416095 0.437516 0.000000 0.000000 0.000000 4.223936 -5.879801 0.533098 11.306967 1.121077 11.610636 -0.262094 6.105461 -15.401114 0.000000 0.000000 0.000000 4.790222 -6.718394 -0.106546 -2.277563 -13.480821 -17.757221 -7.020387 5.880210 -0.068026 -39.919508 -13.239602 -23.014712 -15.063535 -67.845792 14.754851 0.000000 0.000000 0.000000 4.195766 -5.861332 1.367381 -0.448078 0.048828 -0.334337 -6.828905 -1.240487 -3.705524 -30.383004 44.052975 10.511752 47.177015 29.329949 -18.668562 0.000000 0.000000 0.000000 
6.766276 78.478844 158.245041 0.000000 0.000000 0.000000 8.430515 -29.113326 -2.114976 44.795843 26.411279 1.449803 -5.136691 12.621103 5.165526 -13.708267 -4.111528 -40.659744 -24.541553 -0.392082 -2.210630 0.000000 0.000000 0.000000 10.553433 -26.271564 -2.757541 -83.527620 -4.291551 -4.861776 40.221526 -1.021861 -2.524125 28.347906 6.435989 4.436606 -3.595271 2.327664 2.084709 0.000000 0.000000 0.000000 9.016114 -27.131729 -1.832035 4.480379 -9.351238 3.030062 3.590661 -9.687821 1.605467 1.203284 -3.565839 0.226347 0.000000 0.000000 0.000000 4.012661 -9.409345 1.902947 8.580699 4.381384 13.752217 2.808266 13.363003 -19.830425 0.000000 0.000000 0.000000 4.820893 -10.273850 1.264593 -4.289027 -18.961061 -18.938059 -7.185696 6.794234 0.381694 -37.801825 -21.294028 -27.331531 -12.127227 -52.508780 13.642358 0.000000 0.000000 0.000000 4.285112 -9.382322 2.729009 -0.423401 -2.921817 6.676339 -5.935563 -1.853360 -3.827837 -20.147468 33.504093 1.845909 37.784436 22.665834 -7.279628 0.000000 0.000000 0.000000 
6.690657 78.167091 163.742996 0.000000 0.000000 0.000000 11.025171 -32.440492 -2.318290 46.055464 29.058333 0.951204 -6.461833 14.278755 5.575173 -9.237575 -7.096625 -40.033842 -26.895685 -0.829600 0.417554 0.000000 0.000000 0.000000 13.361958 -29.057749 -2.591329 -82.799808 -3.085759 -0.989080 40.329036 -1.529551 -2.976284 24.989968 7.223120 3.586337 -3.002634 2.004299 2.231490 0.000000 0.000000 0.000000 11.150062 -31.014827 -2.401604 4.371631 -11.730044 3.227850 4.142921 -12.296878 2.605167 0.644187 -2.052996 0.252700 0.000000 0.000000 0.000000 4.348468 -11.988491 3.208246 5.409892 7.042338 15.621332 5.400386 19.038751 -23.098663 0.000000 0.000000 0.000000 5.080417 -12.802794 2.608374 -5.613529 -23.017037 -18.411931 -6.782158 6.823014 0.613890 -37.205577 -29.865719 -32.783050 -10.278127 -37.717647 11.047418 0.000000 0.000000 0.000000 4.500203 -12.012554 3.846255 -0.129481 -5.492280 11.177779 -4.632463 -2.037248 -2.885417 -17.065687 24.780705 -0.135115 31.354864 23.019122 -1.728594 0.000000 0.000000 0.000000 
6.496160 78.548874 170.024628 0.000000 0.000000 0.000000 13.489515 -36.198425 -1.971111 43.398534 32.754490 3.192342 -0.491717 16.003786 3.968405 -0.992251 -11.277068 -36.589870 -25.177802 -1.148497 2.771391 0.000000 0.000000 0.000000 15.963158 -31.896352 -2.045641 -81.998197 -1.259668 2.241006 41.552644 -1.468289 -3.227439 21.791176 8.509306 3.210887 -2.771432 1.970958 2.156818 0.000000 0.000000 0.000000 12.800427 -34.790258 -2.820486 3.988364 -12.922119 3.110800 4.738111 -13.832363 3.341664 0.149544 -1.200160 0.335947 0.000000 0.000000 0.000000 5.022181 -13.476819 4.162461 2.134329 9.081818 17.182676 6.876053 23.271004 -24.984197 0.000000 0.000000 0.000000 5.370565 -14.214314 3.650048 -6.166602 -25.592510 -16.406671 -5.755773 6.269415 0.314441 -39.520277 -37.422914 -39.833732 -8.986217 -26.445763 7.830143 0.000000 0.000000 0.000000 4.676606 -13.598927 4.521690 0.188166 -7.060064 13.210629 -2.902658 -1.761744 -1.331021 -17.559090 18.464016 0.978814 25.349994 27.960508 0.919891 0.000000 0.000000 0.000000 
6.221338 79.834267 176.559387 0.000000 0.000000 0.000000 15.396259 -40.525049 -1.017217 36.481256 35.784024 8.205793 11.846907 17.965959 0.747648 9.447773 -13.908286 -29.197512 -19.533499 -0.729650 3.707681 0.000000 0.000000 0.000000 17.917878 -35.239398 -1.093524 -80.279762 0.666823 4.675418 42.701619 -1.162645 -3.207370 18.973150 9.766868 3.159844 -2.936540 2.147343 1.905152 0.000000 0.000000 0.000000 14.001647 -38.835926 -2.922206 3.424919 -12.953047 2.723312 5.197925 -14.347016 3.675339 0.145623 -0.823861 0.999471 0.000000 0.000000 0.000000 5.766967 -13.958046 4.617001 -0.911064 10.579935 18.356622 7.083888 26.240648 -25.419823 0.000000 0.000000 0.000000 5.476239 -14.615804 4.154095 -6.060114 -26.696240 -13.607530 -4.175611 5.263314 -0.604581 -44.385144 -42.336716 -47.567466 -8.138471 -19.234928 4.530289 0.000000 0.000000 0.000000 4.717169 -14.166533 4.706250 0.416290 -7.141476 13.164623 -1.096669 -1.908875 0.978945 -19.513745 14.232748 3.423505 18.705564 32.479380 2.572491 0.000000 0.000000 0.000000 
